<svg width="30" height="31" viewBox="0 0 30 31" fill="none" xmlns="http://www.w3.org/2000/svg">
<g id="fluent-mdl2:money">
<path id="Vector" d="M30 6.125V24.875H1.875V21.125H0V4.25H26.25V6.125H30ZM22.5 6.125C22.5 6.38867 22.5488 6.63281 22.6465 6.85742C22.7441 7.08203 22.876 7.27734 23.042 7.44336C23.208 7.60938 23.4082 7.74609 23.6426 7.85352C23.877 7.96094 24.1211 8.00977 24.375 8V6.125H22.5ZM1.875 8C2.13867 8 2.38281 7.95117 2.60742 7.85352C2.83203 7.75586 3.02734 7.62402 3.19336 7.45801C3.35938 7.29199 3.49609 7.0918 3.60352 6.85742C3.71094 6.62305 3.75977 6.37891 3.75 6.125H1.875V8ZM1.875 15.5C2.39258 15.5 2.87598 15.5977 3.3252 15.793C3.77441 15.9883 4.1748 16.2568 4.52637 16.5986C4.87793 16.9404 5.14648 17.3359 5.33203 17.7852C5.51758 18.2344 5.61523 18.7227 5.625 19.25H20.625C20.625 18.7324 20.7227 18.249 20.918 17.7998C21.1133 17.3506 21.3818 16.9502 21.7236 16.5986C22.0654 16.2471 22.4609 15.9785 22.9102 15.793C23.3594 15.6074 23.8477 15.5098 24.375 15.5V9.875C23.8574 9.875 23.374 9.77734 22.9248 9.58203C22.4756 9.38672 22.0752 9.11816 21.7236 8.77637C21.3721 8.43457 21.1035 8.03906 20.918 7.58984C20.7324 7.14062 20.6348 6.65234 20.625 6.125H5.625C5.625 6.64258 5.52734 7.12598 5.33203 7.5752C5.13672 8.02441 4.86816 8.4248 4.52637 8.77637C4.18457 9.12793 3.78906 9.39648 3.33984 9.58203C2.89062 9.76758 2.40234 9.86523 1.875 9.875V15.5ZM24.375 17.375C24.1113 17.375 23.8672 17.4238 23.6426 17.5215C23.418 17.6191 23.2227 17.751 23.0566 17.917C22.8906 18.083 22.7539 18.2832 22.6465 18.5176C22.5391 18.752 22.4902 18.9961 22.5 19.25H24.375V17.375ZM1.875 19.25H3.75C3.75 18.9863 3.70117 18.7422 3.60352 18.5176C3.50586 18.293 3.37402 18.0977 3.20801 17.9316C3.04199 17.7656 2.8418 17.6289 2.60742 17.5215C2.37305 17.4141 2.12891 17.3652 1.875 17.375V19.25ZM28.125 8H26.25V21.125H3.75V23H28.125V8ZM6.5625 13.625C6.30859 13.625 6.08887 13.5322 5.90332 13.3467C5.71777 13.1611 5.625 12.9414 5.625 12.6875C5.625 12.4336 5.71777 12.2139 5.90332 12.0283C6.08887 11.8428 6.30859 11.75 6.5625 11.75C6.81641 11.75 7.03613 11.8428 7.22168 12.0283C7.40723 12.2139 7.5 12.4336 7.5 12.6875C7.5 12.9414 7.40723 13.1611 7.22168 13.3467C7.03613 13.5322 6.81641 13.625 6.5625 13.625ZM19.6875 13.625C19.4336 13.625 19.2139 13.5322 19.0283 13.3467C18.8428 13.1611 18.75 12.9414 18.75 12.6875C18.75 12.4336 18.8428 12.2139 19.0283 12.0283C19.2139 11.8428 19.4336 11.75 19.6875 11.75C19.9414 11.75 20.1611 11.8428 20.3467 12.0283C20.5322 12.2139 20.625 12.4336 20.625 12.6875C20.625 12.9414 20.5322 13.1611 20.3467 13.3467C20.1611 13.5322 19.9414 13.625 19.6875 13.625ZM13.125 17.375C12.6074 17.375 12.124 17.2773 11.6748 17.082C11.2256 16.8867 10.8252 16.6182 10.4736 16.2764C10.1221 15.9346 9.85352 15.5391 9.66797 15.0898C9.48242 14.6406 9.38477 14.1523 9.375 13.625V11.75C9.375 11.2324 9.47266 10.749 9.66797 10.2998C9.86328 9.85059 10.1318 9.4502 10.4736 9.09863C10.8154 8.74707 11.2109 8.47852 11.6602 8.29297C12.1094 8.10742 12.5977 8.00977 13.125 8C13.6426 8 14.126 8.09766 14.5752 8.29297C15.0244 8.48828 15.4248 8.75684 15.7764 9.09863C16.1279 9.44043 16.3965 9.83594 16.582 10.2852C16.7676 10.7344 16.8652 11.2227 16.875 11.75V13.625C16.875 14.1426 16.7773 14.626 16.582 15.0752C16.3867 15.5244 16.1182 15.9248 15.7764 16.2764C15.4346 16.6279 15.0391 16.8965 14.5898 17.082C14.1406 17.2676 13.6523 17.3652 13.125 17.375ZM11.25 13.625C11.25 13.8887 11.2988 14.1328 11.3965 14.3574C11.4941 14.582 11.626 14.7773 11.792 14.9434C11.958 15.1094 12.1582 15.2461 12.3926 15.3535C12.627 15.4609 12.8711 15.5098 13.125 15.5C13.3887 15.5 13.6328 15.4512 13.8574 15.3535C14.082 15.2559 14.2773 15.124 14.4434 14.958C14.6094 14.792 14.7461 14.5918 14.8535 14.3574C14.9609 14.123 15.0098 13.8789 15 13.625V11.75C15 11.4863 14.9512 11.2422 14.8535 11.0176C14.7559 10.793 14.624 10.5977 14.458 10.4316C14.292 10.2656 14.0918 10.1289 13.8574 10.0215C13.623 9.91406 13.3789 9.86523 13.125 9.875C12.8613 9.875 12.6172 9.92383 12.3926 10.0215C12.168 10.1191 11.9727 10.251 11.8066 10.417C11.6406 10.583 11.5039 10.7832 11.3965 11.0176C11.2891 11.252 11.2402 11.4961 11.25 11.75V13.625Z" fill="#DC2626"/>
</g>
</svg>
