<svg width="30" height="31" viewBox="0 0 30 31" fill="none" xmlns="http://www.w3.org/2000/svg">
<g id="mingcute:location-line">
<g id="Group">
<path id="Vector" fill-rule="evenodd" clip-rule="evenodd" d="M15 3C17.9837 3 20.8452 4.18526 22.955 6.29505C25.0647 8.40483 26.25 11.2663 26.25 14.25C26.25 18.0925 24.155 21.2375 21.9475 23.4938C20.8446 24.6088 19.6412 25.6198 18.3525 26.5138L17.82 26.8762L17.57 27.0425L17.0988 27.3425L16.6788 27.5988L16.1588 27.9012C15.8058 28.1027 15.4064 28.2087 15 28.2087C14.5936 28.2087 14.1942 28.1027 13.8412 27.9012L13.3212 27.5988L12.6713 27.1987L12.4312 27.0425L11.9187 26.7013C10.5285 25.7607 9.23363 24.6864 8.0525 23.4938C5.845 21.2362 3.75 18.0925 3.75 14.25C3.75 11.2663 4.93526 8.40483 7.04505 6.29505C9.15483 4.18526 12.0163 3 15 3ZM15 5.5C12.6794 5.5 10.4538 6.42187 8.81282 8.06282C7.17187 9.70376 6.25 11.9294 6.25 14.25C6.25 17.1525 7.84 19.7 9.83875 21.745C10.6982 22.615 11.6271 23.4135 12.6163 24.1325L13.1887 24.54C13.3737 24.6692 13.5517 24.7892 13.7225 24.9L14.21 25.2125L14.6388 25.4738L15 25.685L15.5688 25.3487L16.0275 25.0613C16.2717 24.9062 16.5329 24.7325 16.8113 24.54L17.3837 24.1325C18.3729 23.4135 19.3018 22.615 20.1612 21.745C22.16 19.7013 23.75 17.1525 23.75 14.25C23.75 11.9294 22.8281 9.70376 21.1872 8.06282C19.5462 6.42187 17.3206 5.5 15 5.5ZM15 9.25C16.3261 9.25 17.5979 9.77678 18.5355 10.7145C19.4732 11.6521 20 12.9239 20 14.25C20 15.5761 19.4732 16.8479 18.5355 17.7855C17.5979 18.7232 16.3261 19.25 15 19.25C13.6739 19.25 12.4021 18.7232 11.4645 17.7855C10.5268 16.8479 10 15.5761 10 14.25C10 12.9239 10.5268 11.6521 11.4645 10.7145C12.4021 9.77678 13.6739 9.25 15 9.25ZM15 11.75C14.337 11.75 13.7011 12.0134 13.2322 12.4822C12.7634 12.9511 12.5 13.587 12.5 14.25C12.5 14.913 12.7634 15.5489 13.2322 16.0178C13.7011 16.4866 14.337 16.75 15 16.75C15.663 16.75 16.2989 16.4866 16.7678 16.0178C17.2366 15.5489 17.5 14.913 17.5 14.25C17.5 13.587 17.2366 12.9511 16.7678 12.4822C16.2989 12.0134 15.663 11.75 15 11.75Z" fill="#DC2626"/>
</g>
</g>
</svg>
